<?xml version="1.0" encoding="utf-8"?>
<!-- Generator: Adobe Illustrator 16.2.1, SVG Export Plug-In . SVG Version: 6.00 Build 0)  -->
<!DOCTYPE svg PUBLIC "-//W3C//DTD SVG 1.1//EN" "http://www.w3.org/Graphics/SVG/1.1/DTD/svg11.dtd">
<svg version="1.1" id="Layer_1" xmlns="http://www.w3.org/2000/svg" xmlns:xlink="http://www.w3.org/1999/xlink" x="0px" y="0px"
	 width="768px" height="72px" viewBox="0 0 768 72" enable-background="new 0 0 768 72" xml:space="preserve">
<g>
	<path fill="#FFFFFF" d="M87.596,36.002c0,10.655-1.632,17.471-7.488,23.326c-5.279,5.28-15.167,8.736-30.43,8.736
		c-13.535,0-28.51-2.784-37.821-6.432V45.602c9.695,4.224,24.958,7.488,36.766,7.488c7.199,0,12.383-0.48,16.126-4.224
		c2.976-2.976,3.744-6.72,3.744-15.071V0.005h19.103V36.002z"/>
	<path fill="#FFFFFF" d="M145.2,67.2h-25.438v-0.288l41.853-33.021L119.858,0.293V0.005h27.838l28.222,23.807l28.99-23.807h25.438
		v0.288l-41.277,32.638l42.237,33.981V67.2h-27.838L174.67,43.01L145.2,67.2z"/>
	<path fill="#FFFFFF" d="M349.291,51.938V0.005h18.526V67.2h-28.03l-56.636-52.892V67.2h-18.526V0.005h28.99L349.291,51.938z"/>
	<path fill="#FFFFFF" d="M409.296,0.005h60.38c18.526,0,25.055,2.208,29.566,6.72c3.071,3.072,4.127,6.719,4.127,10.943
		c0,7.775-4.127,13.055-15.263,15.359c10.751,1.92,16.223,6.335,16.223,15.263c0,4.032-0.96,8.063-4.224,11.327
		c-4.415,4.416-11.615,7.583-31.102,7.583h-59.708V0.005z M427.343,14.308v12.191h43.581c5.76,0,10.079-0.288,12.095-2.304
		c0.769-0.768,1.345-1.92,1.345-3.744c0-1.344-0.288-2.592-1.345-3.648c-2.016-2.016-6.335-2.496-12.19-2.496H427.343z
		 M470.636,53.089c6.336,0,11.039-0.48,13.247-2.688c1.152-1.152,1.44-2.496,1.44-3.936c0-2.016-0.673-3.264-1.44-4.032
		c-2.208-2.208-6.911-2.496-13.247-2.496h-43.293v13.151H470.636z"/>
	<path fill="#FFFFFF" d="M627.498,51.745V67.2h-85.435V0.005h19.104v51.74H627.498z"/>
	<path fill="#FFFFFF" d="M693.932,25.539l39.069-25.534h27.646v0.288l-50.396,32.926l51.164,33.693V67.2h-28.99l-39.837-26.206
		h-11.23V67.2h-19.104V0.005h19.104v25.534H693.932z"/>
</g>
</svg>
