<?xml version="1.0" encoding="utf-8"?>
<!-- Generator: Adobe Illustrator 16.2.0, SVG Export Plug-In . SVG Version: 6.00 Build 0)  -->
<!DOCTYPE svg PUBLIC "-//W3C//DTD SVG 1.1//EN" "http://www.w3.org/Graphics/SVG/1.1/DTD/svg11.dtd">
<svg version="1.1" id="Layer_1" xmlns="http://www.w3.org/2000/svg" xmlns:xlink="http://www.w3.org/1999/xlink" x="0px" y="0px"
	 width="128px" height="128px" viewBox="0 0 128 128" enable-background="new 0 0 128 128" xml:space="preserve">
<rect x="-16" y="-592" fill="#FF6600" width="160" height="160"/>
<path fill="#444444" d="M502.043,17.958C495.619,11.537,487.082,8,478,8s-17.62,3.537-24.041,9.958
	c-2.401,2.401-4.398,5.098-5.959,8.009c-1.561-2.911-3.557-5.608-5.957-8.009C435.619,11.537,427.082,8,418,8
	s-17.62,3.537-24.041,9.958C387.537,24.38,384,32.918,384,42c0,9.082,3.537,17.62,9.959,24.041l48.178,51.402
	C443.65,119.074,445.775,120,448,120s4.349-0.926,5.862-2.557l48.181-51.402C508.463,59.62,512,51.082,512,42
	C512,32.918,508.463,24.38,502.043,17.958z"/>
<path fill="#444444" d="M224,48V32c0-17.645,14.355-32,32-32s32,14.355,32,32v16c0,17.645-14.355,32-32,32S224,65.645,224,48z
	 M315.578,104.844C314.203,104.156,281.594,88,256,88s-58.203,16.156-59.578,16.844C193.711,106.199,192,108.969,192,112v8
	c0,4.418,3.582,8,8,8h112c4.418,0,8-3.582,8-8v-8C320,108.969,318.289,106.199,315.578,104.844z"/>
<g>
	<path fill="#444444" d="M833.657,462.342L808,488l-16-16l25.657-25.658l-8-8c-1.562-1.561-3.61-2.342-5.657-2.342
		s-4.095,0.781-5.657,2.342l-28,28C768.781,467.904,768,469.951,768,472c0,2.047,0.781,4.096,2.343,5.656l32,32
		c1.562,1.562,3.61,2.344,5.657,2.344s4.095-0.781,5.657-2.344l28-28c1.562-1.561,2.343-3.607,2.343-5.654
		c0-2.049-0.781-4.098-2.343-5.66L833.657,462.342z"/>
	<path fill="#444444" d="M893.657,418.342l-32-32c-1.562-1.561-3.61-2.342-5.657-2.342s-4.095,0.781-5.657,2.342l-28,28
		C820.781,415.904,820,417.951,820,420c0,2.047,0.781,4.094,2.343,5.656l8,8L856,408l16,16l-25.657,25.656l8,8
		c1.562,1.562,3.61,2.344,5.657,2.344s4.095-0.781,5.657-2.344l28-28c1.562-1.561,2.343-3.607,2.343-5.654
		C896,421.953,895.219,419.904,893.657,418.342z"/>
</g>
<path fill="#444444" d="M896,252v8c0,2.005-1.484,3.7-3.472,3.965l-17.761,2.368c-1.086,4.512-2.859,8.756-5.217,12.606
	l10.881,14.229c1.218,1.592,1.068,3.84-0.35,5.258l-5.656,5.657c-0.775,0.776-1.8,1.172-2.829,1.172
	c-0.853,0-1.708-0.271-2.429-0.822l-14.229-10.882c-3.851,2.357-8.094,4.131-12.605,5.217l-2.368,17.761
	C839.7,318.516,838.005,320,836,320h-8c-2.005,0-3.7-1.484-3.965-3.472l-2.368-17.761c-4.512-1.086-8.756-2.859-12.606-5.217
	l-14.229,10.881c-0.721,0.551-1.576,0.822-2.429,0.822c-1.029,0-2.054-0.396-2.829-1.172l-5.657-5.656
	c-1.418-1.417-1.567-3.665-0.35-5.258l10.882-14.229c-2.357-3.851-4.131-8.094-5.217-12.605l-17.761-2.368
	C769.484,263.7,768,262.005,768,260v-8c0-2.005,1.484-3.7,3.472-3.965l17.761-2.368c1.086-4.512,2.859-8.755,5.217-12.605
	l-10.882-14.229c-1.218-1.593-1.068-3.841,0.35-5.258l5.657-5.657c0.775-0.776,1.8-1.172,2.829-1.172
	c0.853,0,1.708,0.271,2.429,0.822l14.229,10.882c3.851-2.357,8.094-4.131,12.605-5.217l2.368-17.761
	C824.3,193.484,825.995,192,828,192h8c2.005,0,3.7,1.484,3.965,3.472l2.368,17.761c4.512,1.086,8.755,2.859,12.605,5.217
	l14.229-10.882c0.721-0.552,1.576-0.822,2.429-0.822c1.029,0,2.054,0.396,2.829,1.172l5.657,5.657
	c1.418,1.417,1.567,3.666,0.35,5.258l-10.882,14.229c2.357,3.851,4.131,8.094,5.217,12.605l17.761,2.368
	C894.516,248.3,896,249.995,896,252z M832,280c13.255,0,24-10.745,24-24s-10.745-24-24-24s-24,10.745-24,24S818.745,280,832,280z"/>
<path fill="#444444" d="M768,64c0-35.346,28.652-64,64-64s64,28.654,64,64s-28.652,64-64,64S768,99.346,768,64z M856,64l-28-28
	l-12,12l16,16l-16,16l12,12L856,64z"/>
<path fill="#444444" d="M319.072,270.561l-20,24c-0.76,0.912-1.885,1.439-3.072,1.439s-2.312-0.527-3.072-1.439l-20-24
	c-0.611-0.733-0.928-1.644-0.928-2.562c0-0.576,0.123-1.154,0.377-1.695c0.658-1.404,2.07-2.303,3.623-2.303h12v-32h-40v-16h48
	c4.418,0,8,3.582,8,8v40h12c1.553,0,2.965,0.898,3.623,2.303c0.254,0.541,0.377,1.119,0.377,1.695
	C320,268.917,319.684,269.827,319.072,270.561z M224,248h12c1.553,0,2.965-0.898,3.623-2.303c0.254-0.541,0.377-1.119,0.377-1.695
	c0-0.919-0.316-1.829-0.928-2.562l-20-24c-0.76-0.912-1.885-1.439-3.072-1.439s-2.312,0.527-3.072,1.439l-20,24
	c-0.611,0.733-0.928,1.644-0.928,2.562c0,0.576,0.123,1.154,0.377,1.695c0.658,1.404,2.07,2.303,3.623,2.303h12v40
	c0,4.418,3.582,8,8,8h48v-16h-40V248z"/>
<path fill="#444444" d="M128,256c0,10.684-4.16,20.729-11.717,28.284C108.729,291.839,98.684,296,88,296H64v12
	c0,1.553-0.898,2.964-2.303,3.623C61.156,311.876,60.576,312,60,312c-0.918,0-1.828-0.316-2.561-0.928l-24-20
	C32.527,290.312,32,289.188,32,288s0.527-2.312,1.439-3.072l24-20C58.172,264.316,59.082,264,60,264
	c0.576,0,1.156,0.124,1.697,0.377C63.102,265.036,64,266.447,64,268v12h24c6.41,0,12.436-2.497,16.969-7.03S112,262.41,112,256
	s-2.498-12.437-7.031-16.97l11.314-11.314C123.84,235.271,128,245.316,128,256z M40,232h24v12c0,1.553,0.898,2.964,2.303,3.623
	C66.846,247.876,67.424,248,68,248c0.918,0,1.828-0.316,2.561-0.928l24-20C95.473,226.312,96,225.188,96,224
	s-0.527-2.312-1.439-3.072l-24-20C69.828,200.316,68.918,200,68,200c-0.576,0-1.154,0.124-1.697,0.377
	C64.898,201.036,64,202.447,64,204v12H40c-10.684,0-20.729,4.161-28.283,11.716C4.162,235.271,0,245.316,0,256
	s4.162,20.729,11.717,28.284l11.314-11.314C18.498,268.437,16,262.41,16,256s2.498-12.437,7.031-16.97S33.59,232,40,232z"/>
<path fill="#444444" d="M480,272h16v24c0,4.418-3.582,8-8,8h-96c-4.418,0-8-3.582-8-8v-80c0-4.418,3.582-8,8-8h32v16h-24v64h80V272z
	 M510.828,225.172l-32-32C478.062,192.406,477.04,192,476,192c-0.516,0-1.035,0.1-1.531,0.305C472.975,192.924,472,194.383,472,196
	v16c-26.51,0-48,25.072-48,56c8-9.333,21.49-24,48-24v16c0,1.617,0.975,3.076,2.469,3.695C474.964,263.9,475.484,264,476,264
	c1.04,0,2.062-0.406,2.828-1.172l32-32C512.391,229.266,512.391,226.734,510.828,225.172z"/>
<g>
	<path fill="#BEC0C2" d="M696-288h-96c-4.418,0-8,3.582-8,8h96c4.418,0,8,3.582,8,8v96c4.418,0,8-3.582,8-8v-96
		C704-284.418,700.418-288,696-288z"/>
	<path fill="#BEC0C2" d="M680-272h-96c-4.418,0-8,3.582-8,8v96c0,4.4,3.6,8,8,8h96c4.418,0,8-3.582,8-8v-96
		C688-268.418,684.418-272,680-272z"/>
</g>
<rect x="-262" y="-62" fill="#BEC0C2" width="16" height="83.667"/>
<rect x="-230" y="-62" fill="#BEC0C2" width="16" height="83.667"/>
<rect x="-198" y="-62" fill="#BEC0C2" width="16" height="83.667"/>
<rect x="-166" y="-62" fill="#BEC0C2" width="16" height="83.667"/>
<path fill="#BBBBBB" d="M-589.551,15.51h13.062V96.49h-13.062V62.531H-600V49.469h10.449V15.51z M-482.449,49.469h-10.449V36.408
	h-13.062v39.184h13.062V62.531h10.449V49.469z M-526.857,109.551h13.062V2.449h-13.062V109.551z M-547.755,91.265h13.062v-70.53
	h-13.062V91.265z M-568.653,120h13.062V-8h-13.062V120z"/>
<path fill="#FFFFFF" d="M128,72h-8v16h-16V40h16v16h8V72z M80,120h16V8H80V120z M56,104h16V24H56V104z M32,128h16V0H32V128z M8,56H0
	v16h8v32h16V24H8V56z"/>
<path fill="#BBBBBB" d="M128-312h-8v16h-16v-48h16v16h8V-312z M80-264h16v-112H80V-264z M56-280h16v-80H56V-280z M32-256h16v-128H32
	V-256z M8-328H0v16h8v32h16v-80H8V-328z"/>
<path fill="#444444" d="M688,120c0,4.4-3.6,8-8,8h-96c-4.4,0-8-3.6-8-8V24c0-4.4,3.6-8,8-8h96c4.4,0,8,3.6,8,8V120z M704,20
	c0-11.028-8.972-20-20-20h-92v8h92c6.617,0,12,5.383,12,12v92h8V20z"/>
<path fill="#444444" d="M660.002,200H620c-24.262,0-44,19.738-44,44c0,21.531,15.543,39.499,36,43.271V304
	c0,3.235,1.949,6.152,4.938,7.391c0.99,0.41,2.031,0.609,3.061,0.609c2.082,0,4.129-0.812,5.66-2.344L648,288h12.002
	c24.26,0,43.998-19.739,43.998-44C704,219.738,684.262,200,660.002,200L660.002,200z"/>
<path fill="#444444" d="M4,384c-0.73,0-1.461,0.2-2.104,0.598C0.717,385.326,0,386.613,0,388v120c0,1.387,0.717,2.674,1.896,3.402
	C2.539,511.8,3.27,512,4,512c0.611,0,1.225-0.141,1.789-0.422l120-60C127.145,450.9,128,449.516,128,448s-0.855-2.9-2.211-3.578
	l-120-60C5.225,384.141,4.611,384,4,384L4,384z"/>
<path fill="#444444" d="M506.828,445.172l-60-60C446.064,384.406,445.041,384,444,384c-0.516,0-1.035,0.1-1.531,0.305
	C440.975,384.924,440,386.383,440,388v46.346l-49.172-49.174C390.064,384.406,389.041,384,388,384c-0.516,0-1.035,0.1-1.531,0.305
	C384.975,384.924,384,386.383,384,388v120c0,1.617,0.975,3.076,2.469,3.695C386.965,511.9,387.484,512,388,512
	c1.041,0,2.064-0.406,2.828-1.172L440,461.656V508c0,1.617,0.975,3.076,2.469,3.695C442.965,511.9,443.484,512,444,512
	c1.041,0,2.064-0.406,2.828-1.172l60-60c0.779-0.779,1.172-1.803,1.172-2.824C508.002,446.979,507.609,445.955,506.828,445.172z"/>
<path fill="#444444" d="M240,508c0,2.201-1.8,4-4,4h-40c-2.2,0-4-1.799-4-4V388c0-2.199,1.8-4,4-4h40c2.2,0,4,1.8,4,4V508z M320,388
	c0-2.199-1.8-4-4-4h-40c-2.2,0-4,1.8-4,4v120c0,2.201,1.8,4,4,4h40c2.2,0,4-1.799,4-4V388z"/>
<path fill="#444444" d="M700,384h-40c-2.2,0-4,1.8-4,4v42.782l-73.879-46.175C581.473,384.203,580.736,384,580,384
	c-0.666,0-1.334,0.166-1.939,0.502C576.789,385.207,576,386.546,576,388v120c0,1.454,0.789,2.793,2.061,3.498
	c0.605,0.336,1.273,0.502,1.939,0.502c0.736,0,1.473-0.203,2.121-0.607L656,465.218V508c0,2.2,1.8,4,4,4h40c2.209,0,4-1.791,4-4V388
	C704,385.791,702.209,384,700,384z"/>
<g>
	<path fill="#444444" d="M72,596c0,2.2-1.8,4-4,4h-8c-2.2,0-4-1.8-4-4v-16c0-2.2,1.8-4,4-4h8c2.2,0,4,1.8,4,4V596z"/>
	<path fill="#444444" d="M72,700c0,2.2-1.8,4-4,4h-8c-2.2,0-4-1.8-4-4v-16c0-2.2,1.8-4,4-4h8c2.2,0,4,1.8,4,4V700z"/>
	<path fill="#444444" d="M108,648c-2.2,0-4-1.8-4-4v-8c0-2.2,1.8-4,4-4h16c2.2,0,4,1.8,4,4v8c0,2.2-1.8,4-4,4H108z"/>
	<path fill="#444444" d="M4,648c-2.2,0-4-1.8-4-4v-8c0-2.2,1.8-4,4-4h16c2.2,0,4,1.8,4,4v8c0,2.2-1.8,4-4,4H4z"/>
	<path fill="#444444" d="M100.77,614.544c-1.556,1.556-4.101,1.556-5.656,0l-5.658-5.657c-1.556-1.555-1.556-4.102,0-5.656
		l11.314-11.313c1.556-1.556,4.101-1.556,5.656-0.001l5.658,5.658c1.556,1.555,1.556,4.101,0,5.656L100.77,614.544z"/>
	<path fill="#444444" d="M27.23,688.083c-1.556,1.556-4.101,1.556-5.656,0.001l-5.658-5.658c-1.556-1.555-1.556-4.101,0-5.656
		l11.314-11.313c1.556-1.556,4.101-1.556,5.656-0.001l5.658,5.658c1.556,1.555,1.556,4.101,0,5.656L27.23,688.083z"/>
	<path fill="#444444" d="M89.455,676.77c-1.556-1.556-1.556-4.102,0-5.656l5.658-5.658c1.556-1.555,4.101-1.555,5.656,0.001
		l11.314,11.313c1.556,1.556,1.556,4.102,0,5.656l-5.658,5.658c-1.556,1.555-4.101,1.555-5.656-0.001L89.455,676.77z"/>
	<path fill="#444444" d="M15.916,603.23c-1.556-1.556-1.556-4.102,0-5.656l5.658-5.658c1.556-1.555,4.101-1.555,5.656,0.001
		l11.314,11.313c1.556,1.556,1.556,4.102,0,5.656l-5.658,5.658c-1.556,1.555-4.101,1.555-5.656-0.001L15.916,603.23z"/>
</g>
<rect x="1208" y="192" fill="#444444" width="16" height="32"/>
<rect x="1208" y="288" fill="#444444" width="16" height="32"/>
<rect x="1248" y="248" fill="#444444" width="32" height="16"/>
<rect x="1152" y="248" fill="#444444" width="32" height="16"/>
<rect x="1174.059" y="206.059" transform="matrix(0.7071 -0.7071 0.7071 0.7071 189.1977 900.8812)" fill="#444444" width="16" height="32"/>
<rect x="1241.941" y="273.941" transform="matrix(0.7071 -0.7071 0.7071 0.7071 161.0507 968.7169)" fill="#444444" width="16" height="32"/>
<rect x="1241.941" y="206.059" transform="matrix(0.7071 0.7071 -0.7071 0.7071 523.1185 -818.8021)" fill="#444444" width="16" height="32"/>
<rect x="1174.059" y="273.941" transform="matrix(0.7071 0.7071 -0.7071 0.7071 551.1915 -750.8931)" fill="#444444" width="16" height="32"/>
<circle fill="#444444" cx="1024" cy="8" r="8"/>
<circle fill="#444444" cx="1024" cy="120" r="8"/>
<circle fill="#444444" cx="1080" cy="64" r="8"/>
<circle fill="#444444" cx="968" cy="64" r="8"/>
<circle fill="#444444" cx="1063.598" cy="24.402" r="8"/>
<circle fill="#444444" cx="984.402" cy="103.598" r="8"/>
<circle fill="#444444" cx="1063.598" cy="103.598" r="8"/>
<circle fill="#444444" cx="984.402" cy="24.402" r="8"/>
<rect x="192" y="-336" fill="#444444" width="32" height="32"/>
<rect x="192" y="-720" fill="#444444" width="32" height="32"/>
<rect x="288" y="-720" fill="#444444" width="32" height="32"/>
<rect x="288" y="-336" fill="#444444" width="32" height="32"/>
<rect x="208" y="-384" fill="#444444" width="24" height="128"/>
<rect x="272" y="-368" fill="#444444" width="32" height="96"/>
<rect x="240" y="-360" fill="#444444" width="24" height="80"/>
<rect x="200" y="-576" fill="#444444" width="24" height="128"/>
<rect x="200" y="-752" fill="#444444" width="32" height="96"/>
<rect x="240" y="-736" fill="#444444" width="32" height="64"/>
<rect x="280" y="-744" fill="#444444" width="32" height="80"/>
<rect x="232" y="-552" fill="#444444" width="24" height="80"/>
<rect x="264" y="-560" fill="#444444" width="24" height="96"/>
<rect x="296" y="-536" fill="#444444" width="24" height="48"/>
<path fill="#FFFFFF" d="M24-512c0,22.091-3.582,40-8,40s-8-17.909-8-40s3.582-40,8-40S24-534.091,24-512z M112-536
	c-4.418,0-8,10.745-8,24s3.582,24,8,24s8-10.745,8-24S116.418-536,112-536z M40-576c-4.418,0-8,28.654-8,64s3.582,64,8,64
	s8-28.654,8-64S44.418-576,40-576z M64-552c-4.418,0-8,17.909-8,40s3.582,40,8,40s8-17.909,8-40S68.418-552,64-552z M88-568
	c-4.418,0-8,25.072-8,56s3.582,56,8,56s8-25.072,8-56S92.418-568,88-568z"/>
<rect x="-384" y="-704" fill="#FF6600" width="256" height="256"/>
<path fill="#FFFFFF" d="M-320-576c0,35.346-5.73,64-12.8,64c-7.069,0-12.8-28.654-12.8-64s5.73-64,12.8-64
	C-325.73-640-320-611.346-320-576z M-179.2-614.4c-7.07,0-12.8,17.192-12.8,38.4s5.73,38.4,12.8,38.4c7.069,0,12.8-17.192,12.8-38.4
	S-172.13-614.4-179.2-614.4z M-294.4-678.4c-7.069,0-12.8,45.846-12.8,102.4s5.73,102.4,12.8,102.4s12.8-45.846,12.8-102.4
	S-287.331-678.4-294.4-678.4z M-256-640c-7.07,0-12.8,28.654-12.8,64s5.73,64,12.8,64s12.8-28.654,12.8-64S-248.93-640-256-640z
	 M-217.6-665.6c-7.069,0-12.8,40.116-12.8,89.6s5.73,89.6,12.8,89.6s12.8-40.116,12.8-89.6S-210.531-665.6-217.6-665.6z"/>
<polygon fill="#444444" points="384,-520 400,-552 416,-520 424,-576 440,-520 448,-552 464,-520 472,-568 488,-520 496,-536 
	512,-512 496,-488 488,-504 472,-456 464,-504 448,-472 440,-504 424,-448 416,-504 400,-472 384,-504 "/>
<g>
	<path fill="#444444" d="M576-516c0-2.2,0.805-5.61,1.789-7.578l12.422-24.845c0.984-1.968,2.421-1.892,3.193,0.167l9.191,24.51
		c0.772,2.06,1.781,1.985,2.242-0.166l10.324-48.178c0.461-2.151,1.093-2.129,1.403,0.049l6.869,48.08
		c0.311,2.178,1.197,2.274,1.97,0.215l9.191-24.51c0.772-2.06,2.036-2.06,2.809,0l9.191,24.51c0.772,2.06,1.841,1.999,2.374-0.135
		l10.061-40.239c0.533-2.134,1.406-2.134,1.939,0l10.061,40.239c0.533,2.134,2.05,2.44,3.37,0.68l7.199-9.6
		c1.32-1.76,3.553-1.817,4.961-0.127l14.879,17.854c1.408,1.69,1.408,4.456,0,6.146l-14.879,17.854
		c-1.408,1.69-3.641,1.633-4.961-0.127l-7.199-9.6c-1.32-1.76-2.837-1.454-3.37,0.68L660.97-459.88
		c-0.533,2.134-1.406,2.134-1.939,0L648.97-500.12c-0.533-2.134-1.602-2.195-2.374-0.135l-9.191,24.51
		c-0.772,2.06-2.036,2.06-2.809,0l-9.191-24.51c-0.772-2.06-1.659-1.963-1.97,0.215l-6.869,48.08
		c-0.311,2.178-0.942,2.2-1.403,0.049l-10.324-48.178c-0.461-2.151-1.47-2.226-2.242-0.166l-9.191,24.51
		c-0.772,2.06-2.209,2.135-3.193,0.167l-12.422-24.845C576.805-502.39,576-505.8,576-508V-516z"/>
</g>
<g>
	<polygon fill="#CCCCCC" points="307.429,640 243.429,576 216,603.429 252.572,640 216,676.571 243.429,704 	"/>
</g>
</svg>
