<?xml version="1.0" encoding="utf-8"?>
<!-- Generator: Adobe Illustrator 17.1.0, SVG Export Plug-In . SVG Version: 6.00 Build 0)  -->
<!DOCTYPE svg PUBLIC "-//W3C//DTD SVG 1.1//EN" "http://www.w3.org/Graphics/SVG/1.1/DTD/svg11.dtd">
<svg version="1.1" xmlns="http://www.w3.org/2000/svg" xmlns:xlink="http://www.w3.org/1999/xlink" x="0px" y="0px"
	 viewBox="0 0 128 128" enable-background="new 0 0 128 128" xml:space="preserve">
<g id="bg">
</g>
<g id="Ref">
</g>
<g id="Layer_1">
	<path fill="#FFFFFF" d="M64,0v4h12l-2,2l20,8l-2,2l12,4l-4,2l6,6h-4l4,28c2.7,4,4,8.7,4,14s-1.7,10-5,14l-9,24c-4,8-20,20-32,20
		s-28-12-32-20l-9-24c-3.3-4-5-8.7-5-14s1.3-10,4-14V22l4,2l8-12l2,4L64,0z M72,40c-10.7-6.7-21.3-10-32-10c-5.3,2.7-8.7,8.7-10,18
		l0,0l-2,26c0,7,9,28,10,30c8,14,24,17,26,17s18-3,26-17c1-2,10-23,10-30l-1-22l-5-12l-2,2l-8-4v4l-10-6 M57,88h14c1.1,0,2,0.9,2,2
		s-0.9,2-2,2H57c-1.1,0-2-0.9-2-2S55.9,88,57,88 M53,104h22c1.1,0,2,0.9,2,2s-0.9,2-2,2H53c-1.1,0-2-0.9-2-2S51.9,104,53,104"/>
</g>
</svg>
