<?xml version="1.0" encoding="utf-8"?>
<!-- Generator: Adobe Illustrator 17.1.0, SVG Export Plug-In . SVG Version: 6.00 Build 0)  -->
<!DOCTYPE svg PUBLIC "-//W3C//DTD SVG 1.1//EN" "http://www.w3.org/Graphics/SVG/1.1/DTD/svg11.dtd">
<svg version="1.1" xmlns="http://www.w3.org/2000/svg" xmlns:xlink="http://www.w3.org/1999/xlink" x="0px" y="0px"
	 viewBox="0 0 128 128" enable-background="new 0 0 128 128" xml:space="preserve">
<g id="bg">
</g>
<g id="Ref">
</g>
<g id="Layer_1">
	<path fill="#FFFFFF" d="M44,62c-3,0-5.5,2.5-5.5,5.5S41,73,44,73s5.5-2.5,5.5-5.5S47,62,44,62 M84,62c-3,0-5.5,2.5-5.5,5.5
		S81,73,84,73s5.5-2.5,5.5-5.5S87,62,84,62 M33.3,60.4c1.3-2.6,3.7-4.5,6.4-5.2c3.3-0.8,7.1,0.1,10.7,2.8c0.9,0.6,2.1,0.4,2.8-0.5
		c0.6-0.9,0.4-2.1-0.5-2.8c-5.9-4.2-10.9-4.2-14-3.4c-3.9,1-7.2,3.6-9,7.3c-0.5,1-0.1,2.2,0.9,2.7c0.3,0.1,0.6,0.2,0.9,0.2
		C32.2,61.5,32.9,61.1,33.3,60.4z M97.7,61.9c0.8-0.7,0.9-2,0.2-2.8c-3.6-4.1-7.8-6.2-12.5-6.1c-3.4,0-7.1,1.2-11.1,3.6
		c-1,0.6-1.3,1.8-0.7,2.7c0.6,1,1.8,1.3,2.7,0.7c3.4-2,6.4-3,9.2-3c3.5,0,6.6,1.5,9.5,4.7c0.4,0.5,0.9,0.7,1.5,0.7
		C96.8,62.4,97.3,62.2,97.7,61.9z"/>
</g>
</svg>
