<?xml version="1.0" encoding="utf-8"?>
<!-- Generator: Adobe Illustrator 16.2.1, SVG Export Plug-In . SVG Version: 6.00 Build 0)  -->
<!DOCTYPE svg PUBLIC "-//W3C//DTD SVG 1.1//EN" "http://www.w3.org/Graphics/SVG/1.1/DTD/svg11.dtd">
<svg version="1.1" id="Layer_1" xmlns="http://www.w3.org/2000/svg" xmlns:xlink="http://www.w3.org/1999/xlink" x="0px" y="0px"
	 width="304px" height="64px" viewBox="0 0 304 64" enable-background="new 0 0 304 64" xml:space="preserve">
<path d="M-118.375,52.8h-9.919V15.299L-154.276,52.8h-13.439l-25.982-37.501V52.8h-9.855V8.003h16.191l26.558,38.653l26.622-38.653
	h15.807V52.8z M-44.772,8.003c12.543,0,16.511,1.792,19.71,4.992c2.432,2.432,3.392,6.079,3.392,9.854
	c0,3.776-0.96,7.231-3.647,9.92c-2.432,2.432-6.144,4.479-14.719,5.056l24.062,14.782V52.8h-14.975l-23.678-14.847h-17.727V52.8
	h-9.919V8.003H-44.772z M-72.354,30.146h27.71c6.976,0,9.983-0.96,11.519-2.496c1.024-1.023,1.6-2.367,1.6-4.544
	c0-2.047-0.576-3.583-1.728-4.735c-1.536-1.536-4.16-2.304-11.327-2.304h-27.774V30.146z M98.648,52.8h-9.919V15.299L62.747,52.8
	H49.308L23.326,15.299V52.8H13.47V8.003h16.191l26.558,38.653L82.841,8.003h15.807V52.8z M172.251,8.003
	c12.543,0,16.511,1.792,19.71,4.992c2.432,2.432,3.392,6.079,3.392,9.854c0,3.776-0.959,7.231-3.647,9.92
	c-2.432,2.432-6.144,4.479-14.719,5.056l24.062,14.782V52.8h-14.975l-23.678-14.847h-17.727V52.8h-9.919V8.003H172.251z
	 M144.669,30.146h27.71c6.976,0,9.983-0.96,11.519-2.496c1.024-1.023,1.6-2.367,1.6-4.544c0-2.047-0.576-3.583-1.728-4.735
	c-1.536-1.536-4.16-2.304-11.327-2.304h-27.774V30.146z M277.019,43.265c0.896-0.896,1.216-1.984,1.216-3.136
	c0-1.344-0.32-2.368-1.088-3.136c-1.408-1.408-4.032-1.984-19.838-2.816c-17.855-0.896-23.294-2.367-26.366-5.439
	c-1.792-1.792-2.56-4.287-2.56-7.487c0-3.264,0.704-6.336,3.136-8.768c3.136-3.136,9.28-5.312,25.022-5.312
	c12.479,0,21.886,1.792,27.838,4.16v8.383c-6.783-2.88-18.047-4.991-27.838-4.991c-12.223,0-15.743,1.151-17.215,2.624
	c-0.768,0.768-1.088,1.792-1.088,3.008c0,1.151,0.32,2.111,0.96,2.751c1.344,1.345,4.352,2.112,18.942,2.816
	c18.879,0.96,24.126,2.368,27.198,5.439c1.792,1.792,2.752,4.544,2.752,7.743c0,3.328-0.704,6.399-3.136,8.832
	c-3.2,3.199-9.536,5.695-26.302,5.695c-12.415,0-24.574-1.984-31.486-4.992v-8.383c6.656,3.199,20.799,5.823,31.486,5.823
	C271.195,46.08,275.227,45.057,277.019,43.265z M364.698,8.003v23.998c0,7.104-1.088,11.647-4.991,15.551
	c-3.52,3.521-9.6,5.824-19.135,5.824c-8.384,0-16.959-1.92-23.166-4.672v-8.768c6.463,3.136,14.91,5.439,23.229,5.439
	c4.864,0,9.088-1.216,11.264-3.392c2.048-2.048,2.88-4.863,2.88-9.728V8.003H364.698z M393.821,52.607l27.646-22.334L394.333,8.195
	V8.003h14.015l20.927,17.599l21.183-17.599h13.503v0.192l-27.198,21.95l27.71,22.462V52.8h-14.015l-21.438-17.982L407.324,52.8
	h-13.503V52.607z M549.848,44.16V8.003h9.855V52.8h-13.887l-40.957-36.797V52.8h-9.855V8.003h14.591L549.848,44.16z M595.803,8.003
	h39.806c12.159,0,16.318,1.472,19.326,4.479c2.112,2.112,2.688,4.48,2.688,7.296c0,5.823-3.583,8.896-10.111,10.239
	c6.848,1.279,10.752,4.224,10.752,10.239c0,2.688-0.576,5.439-2.816,7.68c-2.752,2.751-7.487,4.863-20.286,4.863h-39.357V8.003z
	 M634.968,15.938h-29.374v10.367h28.67c8.704,0,10.752-0.768,12.096-2.111c0.768-0.769,1.088-1.792,1.088-3.136
	c0-1.217-0.256-2.24-1.152-3.137C644.951,16.578,642.455,15.938,634.968,15.938z M634.264,33.985h-28.67V45.12h30.015
	c7.167,0,9.791-0.576,11.135-1.92c1.088-1.088,1.344-2.304,1.344-3.583c0-1.408-0.319-2.433-1.151-3.265
	C645.591,35.009,643.415,33.985,634.264,33.985z M746.582,44.608V52.8H691.61V8.003h9.919v36.605H746.582z M787.801,8.003v18.11
	h9.408l27.838-18.11h14.654v0.192l-34.558,21.95l35.07,22.462V52.8h-15.423L796.44,34.177h-8.64V52.8h-9.919V8.003H787.801z"/>
</svg>
