<svg xmlns="http://www.w3.org/2000/svg" viewBox="0 0 296 64" fill="#fff">
  <path d="M99.1,52.8h-9.9V15.3l-26,37.5H49.8l-26-37.5v37.5h-9.9V8h16.2l26.6,38.7L83.3,8h15.8V52.8z"/>
  <path d="M166.3,8c12.5,0,16.5,1.8,19.7,5c2.4,2.4,3.4,6.1,3.4,9.9c0,3.8-1,7.2-3.6,9.9c-2.4,2.4-6.1,4.5-14.7,5.1 l24.1,14.8v0.2h-15L156.4,38h-17.7v14.8h-9.9V8H166.3z M138.7,30.1h27.7c7,0,10-1,11.5-2.5c1-1,1.6-2.4,1.6-4.5 c0-2-0.6-3.6-1.7-4.7c-1.5-1.5-4.2-2.3-11.3-2.3h-27.8V30.1z"/>
  <path d="M264.7,43.3c0.9-0.9,1.2-2,1.2-3.1c0-1.3-0.3-2.4-1.1-3.1c-1.4-1.4-4-2-19.8-2.8 c-17.9-0.9-23.3-2.4-26.4-5.4c-1.8-1.8-2.6-4.3-2.6-7.5c0-3.3,0.7-6.3,3.1-8.8c3.1-3.1,9.3-5.3,25-5.3c12.5,0,21.9,1.8,27.8,4.2 v8.4c-6.8-2.9-18-5-27.8-5c-12.2,0-15.7,1.2-17.2,2.6c-0.8,0.8-1.1,1.8-1.1,3c0,1.2,0.3,2.1,1,2.8c1.3,1.3,4.4,2.1,18.9,2.8 c18.9,1,24.1,2.4,27.2,5.4c1.8,1.8,2.8,4.5,2.8,7.7c0,3.3-0.7,6.4-3.1,8.8c-3.2,3.2-9.5,5.7-26.3,5.7c-12.4,0-24.6-2-31.5-5v-8.4 c6.7,3.2,20.8,5.8,31.5,5.8C258.8,46.1,262.9,45.1,264.7,43.3z"/>
</svg>
