<svg xmlns="http://www.w3.org/2000/svg" viewBox="0 0 248 64" fill="#fff">
  <path d="M13.9,8h39.8C65.8,8,70,9.5,73,12.5c2.1,2.1,2.7,4.5,2.7,7.3c0,5.8-3.6,8.9-10.1,10.2 c6.8,1.3,10.8,4.2,10.8,10.2c0,2.7-0.6,5.4-2.8,7.7c-2.8,2.8-7.5,4.9-20.3,4.9H13.9V8z M53,15.9H23.6v10.4h28.7 c8.7,0,10.8-0.8,12.1-2.1c0.8-0.8,1.1-1.8,1.1-3.1c0-1.2-0.3-2.2-1.2-3.1C63,16.6,60.5,15.9,53,15.9z M52.3,34H23.6v11.1h30 c7.2,0,9.8-0.6,11.1-1.9c1.1-1.1,1.3-2.3,1.3-3.6c0-1.4-0.3-2.4-1.2-3.3C63.6,35,61.5,34,52.3,34z"/>
  <path d="M158.2,44.6v8.2h-55V8h9.9v36.6H158.2z"/>
  <path d="M193.1,8v18.1h9.4L230.3,8H245v0.2l-34.6,22l35.1,22.5v0.2H230l-28.4-18.6h-8.6v18.6h-9.9V8H193.1z"/>
</svg>
