<?xml version="1.0" encoding="utf-8"?>
<!-- Generator: Adobe Illustrator 16.2.1, SVG Export Plug-In . SVG Version: 6.00 Build 0)  -->
<!DOCTYPE svg PUBLIC "-//W3C//DTD SVG 1.1//EN" "http://www.w3.org/Graphics/SVG/1.1/DTD/svg11.dtd">
<svg version="1.1" id="Layer_1" xmlns="http://www.w3.org/2000/svg" xmlns:xlink="http://www.w3.org/1999/xlink" x="0px" y="0px"
	 width="208px" height="64px" viewBox="0 0 208 64" enable-background="new 0 0 208 64" xml:space="preserve">
<path fill="#FFFFFF" d="M89.625,52.8h-9.919V15.299L53.724,52.8H40.285L14.303,15.299V52.8H4.447V8.003h16.191l26.558,38.653
	L73.818,8.003h15.807V52.8z M163.229,8.003c12.543,0,16.511,1.792,19.709,4.992c2.433,2.432,3.393,6.079,3.393,9.854
	c0,3.776-0.96,7.231-3.646,9.92c-2.433,2.432-6.145,4.479-14.72,5.056l24.062,14.782V52.8h-14.975l-23.678-14.847h-17.727V52.8
	h-9.92V8.003H163.229z M135.646,30.146h27.709c6.977,0,9.983-0.96,11.52-2.496c1.023-1.023,1.6-2.367,1.6-4.544
	c0-2.047-0.576-3.583-1.728-4.735c-1.536-1.536-4.16-2.304-11.327-2.304h-27.773V30.146z M306.648,52.8h-9.92V15.299L270.747,52.8
	h-13.438l-25.982-37.501V52.8h-9.855V8.003h16.191l26.559,38.653l26.621-38.653h15.807V52.8L306.648,52.8z M380.251,8.003
	c12.543,0,16.511,1.792,19.71,4.992c2.432,2.432,3.393,6.079,3.393,9.854c0,3.776-0.96,7.231-3.647,9.92
	c-2.432,2.432-6.144,4.479-14.72,5.056l24.062,14.782V52.8h-14.975l-23.678-14.847h-17.728V52.8h-9.919V8.003H380.251z
	 M352.669,30.146h27.71c6.977,0,9.982-0.96,11.52-2.496c1.023-1.023,1.6-2.367,1.6-4.544c0-2.047-0.576-3.583-1.729-4.735
	c-1.535-1.536-4.16-2.304-11.326-2.304h-27.774V30.146L352.669,30.146z M485.02,43.266c0.896-0.896,1.216-1.984,1.216-3.137
	c0-1.344-0.32-2.368-1.089-3.136c-1.407-1.408-4.031-1.984-19.838-2.816c-17.854-0.896-23.294-2.367-26.365-5.439
	c-1.792-1.792-2.561-4.287-2.561-7.487c0-3.264,0.704-6.336,3.136-8.768c3.137-3.136,9.28-5.312,25.022-5.312
	c12.479,0,21.886,1.792,27.838,4.16v8.383c-6.783-2.88-18.047-4.991-27.838-4.991c-12.223,0-15.743,1.151-17.215,2.624
	c-0.769,0.768-1.088,1.792-1.088,3.008c0,1.151,0.319,2.111,0.96,2.751c1.344,1.345,4.352,2.112,18.941,2.816
	c18.879,0.96,24.126,2.368,27.198,5.439c1.792,1.792,2.752,4.543,2.752,7.743c0,3.328-0.704,6.399-3.136,8.832
	c-3.2,3.199-9.536,5.695-26.302,5.695c-12.415,0-24.574-1.984-31.486-4.992v-8.383c6.656,3.199,20.799,5.823,31.486,5.823
	C479.195,46.08,483.227,45.057,485.02,43.266z M572.698,8.003v23.998c0,7.104-1.088,11.647-4.991,15.551
	c-3.521,3.521-9.6,5.824-19.135,5.824c-8.385,0-16.959-1.92-23.166-4.672v-8.769c6.463,3.137,14.91,5.439,23.229,5.439
	c4.864,0,9.088-1.216,11.264-3.393c2.049-2.047,2.881-4.862,2.881-9.728V8.003H572.698z M601.821,52.607l27.646-22.334
	L602.333,8.195V8.003h14.015l20.928,17.599l21.183-17.599h13.503v0.192l-27.198,21.95l27.71,22.462V52.8h-14.015L637.02,34.818
	L615.324,52.8h-13.503V52.607z M757.848,44.16V8.003h9.855V52.8h-13.887l-40.957-36.797V52.8h-9.855V8.003h14.591L757.848,44.16z
	 M803.803,8.003h39.807c12.158,0,16.317,1.472,19.325,4.479c2.112,2.112,2.688,4.48,2.688,7.296c0,5.823-3.583,8.896-10.111,10.239
	c6.849,1.279,10.752,4.224,10.752,10.239c0,2.688-0.576,5.439-2.815,7.68c-2.752,2.752-7.487,4.863-20.286,4.863h-39.357V8.003
	H803.803z M842.968,15.938h-29.374v10.367h28.67c8.704,0,10.752-0.768,12.097-2.111c0.768-0.769,1.088-1.792,1.088-3.136
	c0-1.217-0.256-2.24-1.152-3.137C852.951,16.578,850.455,15.938,842.968,15.938z M842.264,33.984h-28.67V45.12h30.016
	c7.167,0,9.791-0.576,11.135-1.92c1.088-1.089,1.344-2.304,1.344-3.583c0-1.408-0.318-2.434-1.15-3.266
	C853.591,35.009,851.415,33.984,842.264,33.984z M954.582,44.607V52.8H899.61V8.003h9.919v36.604H954.582z M995.801,8.003v18.11
	h9.408l27.838-18.11h14.654v0.192l-34.559,21.95l35.07,22.462V52.8h-15.423l-28.351-18.623h-8.641V52.8h-9.919V8.003H995.801z"/>
</svg>
