<?xml version="1.0" encoding="utf-8"?>
<!-- Generator: Adobe Illustrator 16.2.0, SVG Export Plug-In . SVG Version: 6.00 Build 0)  -->
<!DOCTYPE svg PUBLIC "-//W3C//DTD SVG 1.1//EN" "http://www.w3.org/Graphics/SVG/1.1/DTD/svg11.dtd">
<svg version="1.1" id="Layer_1" xmlns="http://www.w3.org/2000/svg" xmlns:xlink="http://www.w3.org/1999/xlink" x="0px" y="0px"
	 width="200px" height="200px" viewBox="0 0 200 200" enable-background="new 0 0 200 200" xml:space="preserve">
<path fill="#FFFFFF" d="M84,160c0,2.2-1.8,4-4,4H40c-2.2,0-4-1.8-4-4V40c0-2.2,1.8-4,4-4h40c2.2,0,4,1.8,4,4V160z M164,40
	c0-2.2-1.8-4-4-4h-40c-2.2,0-4,1.8-4,4v120c0,2.2,1.8,4,4,4h40c2.2,0,4-1.8,4-4V40z"/>
</svg>
